HIERARCHY
ROOT Hips
{
	OFFSET 0.000000 0.000000 0.000000
	CHANNELS 6 Xposition Yposition Zposition Zrotation Yrotation Xrotation 
	JOINT LHipJoint
	{
		OFFSET 0.000000 0.000000 0.000000
		CHANNELS 3 Zrotation Yrotation Xrotation
		JOINT LeftUpLeg
		{
			OFFSET 8.178360 -10.767780 5.035740
			CHANNELS 3 Zrotation Yrotation Xrotation
			JOINT LeftLeg
			{
				OFFSET 14.688660 -40.356780 0.000000
				CHANNELS 3 Zrotation Yrotation Xrotation
				JOINT LeftFoot
				{
					OFFSET 15.373200 -42.237540 0.000000
					CHANNELS 3 Zrotation Yrotation Xrotation
					JOINT LeftToeBase
					{
						OFFSET 0.945840 -2.598660 13.935300
						CHANNELS 3 Zrotation Yrotation Xrotation
						End Site
						{
							OFFSET 0.000000 0.000000 0.000000
						}
					}
				}
			}
		}
	}
	JOINT RHipJoint
	{
		OFFSET 0.000000 0.000000 0.000000
		CHANNELS 3 Zrotation Yrotation Xrotation
		JOINT RightUpLeg
		{
			OFFSET -7.833120 -10.767780 5.035740
			CHANNELS 3 Zrotation Yrotation Xrotation
			JOINT RightLeg
			{
				OFFSET -15.255180 -41.913300 0.000000
				CHANNELS 3 Zrotation Yrotation Xrotation
				JOINT RightFoot
				{
					OFFSET -15.409560 -42.337380 0.000000
					CHANNELS 3 Zrotation Yrotation Xrotation
					JOINT RightToeBase
					{
						OFFSET -0.988380 -2.715540 14.178900
						CHANNELS 3 Zrotation Yrotation Xrotation
						End Site
						{
							OFFSET 0.000000 0.000000 0.000000
						}
					}
				}
			}
		}
	}
	JOINT LowerBack
	{
		OFFSET 0.000000 0.000000 0.000000
		CHANNELS 3 Zrotation Yrotation Xrotation
		JOINT Spine
		{
			OFFSET 0.169620 12.213540 -1.160280
			CHANNELS 3 Zrotation Yrotation Xrotation
			JOINT Spine1
			{
				OFFSET 0.340320 12.293100 -0.256500
				CHANNELS 3 Zrotation Yrotation Xrotation
				JOINT Neck
				{
					OFFSET 0.000000 0.000000 0.000000
					CHANNELS 3 Zrotation Yrotation Xrotation
					JOINT Neck1
					{
						OFFSET -0.325020 10.477440 1.032120
						CHANNELS 3 Zrotation Yrotation Xrotation
						JOINT Head
						{
							OFFSET 0.624420 10.568160 -0.743820
							CHANNELS 3 Zrotation Yrotation Xrotation
							End Site
							{
								OFFSET 0.000000 0.000000 0.000000
							}
						}
					}
				}
				JOINT LeftShoulder
				{
					OFFSET 0.000000 0.000000 0.000000
					CHANNELS 3 Zrotation Yrotation Xrotation
					JOINT LeftArm
					{
						OFFSET 20.174460 7.205340 -1.867260
						CHANNELS 3 Zrotation Yrotation Xrotation
						JOINT LeftForeArm
						{
							OFFSET 29.898000 -0.000000 -0.000000
							CHANNELS 3 Zrotation Yrotation Xrotation
							JOINT LeftHand
							{
								OFFSET 20.901360 -0.000000 -0.000000
								CHANNELS 3 Zrotation Yrotation Xrotation
								JOINT LeftFingerBase
								{
									OFFSET 0.000000 0.000000 0.000000
									CHANNELS 3 Zrotation Yrotation Xrotation
									JOINT LeftHandIndex1
									{
										OFFSET 4.291560 -0.000000 -0.000000
										CHANNELS 3 Zrotation Yrotation Xrotation
										End Site
										{
											OFFSET 0.000000 0.000000 0.000000
										}
									}
								}
								JOINT LThumb
								{
									OFFSET 0.000000 0.000000 0.000000
									CHANNELS 3 Zrotation Yrotation Xrotation
									End Site
									{
										OFFSET 0.000000 0.000000 0.000000
									}
								}
							}
						}
					}
				}
				JOINT RightShoulder
				{
					OFFSET 0.000000 0.000000 0.000000
					CHANNELS 3 Zrotation Yrotation Xrotation
					JOINT RightArm
					{
						OFFSET -18.819600 8.244300 -2.427900
						CHANNELS 3 Zrotation Yrotation Xrotation
						JOINT RightForeArm
						{
							OFFSET -31.451400 -0.000000 -0.000000
							CHANNELS 3 Zrotation Yrotation Xrotation
							JOINT RightHand
							{
								OFFSET -20.665020 -0.000000 -0.000000
								CHANNELS 3 Zrotation Yrotation Xrotation
								JOINT RightFingerBase
								{
									OFFSET 0.000000 0.000000 0.000000
									CHANNELS 3 Zrotation Yrotation Xrotation
									JOINT RightHandIndex1
									{
										OFFSET -3.735180 -0.000000 -0.000000
										CHANNELS 3 Zrotation Yrotation Xrotation
										End Site
										{
											OFFSET 0.000000 0.000000 0.000000
										}
									}
								}
								JOINT RThumb
								{
									OFFSET 0.000000 0.000000 0.000000
									CHANNELS 3 Zrotation Yrotation Xrotation
									End Site
									{
										OFFSET 0.000000 0.000000 0.000000
									}
								}
							}
						}
					}
				}
			}
		}
	}
}
MOTION
Frames:	9
Frame Time:	0.0333333
-67.436682 108.649758 0.270426 0.645616 -20.821055 -1.600571 -2.463862 1.988643 3.173141 -19.571149 -4.653243 1.809216 2.616175 10.735685 34.329974 0.938868 -8.313688 21.298542 0.529700 -4.663600 -12.951700 0.714873 -1.350982 0.937011 17.853579 5.495121 -14.206310 -0.981238 -7.547697 22.263298 -0.236791 -0.442777 6.363147 -0.008500 -0.596000 1.637900 -2.278187 0.554378 7.804134 1.571685 0.586978 1.009433 1.321089 0.223904 -4.354601 -10.714420 -3.714495 -19.299076 4.863730 -3.117243 24.001901 3.876400 -2.297000 16.460800 -6.417675 -1.004278 -1.645351 -83.780836 3.783073 19.115832 15.556059 -22.108321 -3.608184 -1.271161 -2.265971 7.346296 18.247906 22.177377 8.255900 -7.125000 0.000000 0.000000 -11.024900 55.479700 -2.861100 5.329946 1.142583 -1.276557 83.437825 -5.070346 15.780185 -15.870133 23.398834 -3.486557 0.406025 -0.134519 5.699127 -15.964544 7.683358 -2.274400 7.125000 0.000000 0.000000 7.591000 -21.916100 4.245600 
-69.118140 108.870906 2.669418 -0.700040 -19.417140 -1.433613 -2.273223 1.856058 2.804705 -17.341785 -4.981650 -2.389540 4.383234 12.846884 41.698384 1.632411 -6.635020 29.000232 0.000300 0.109900 0.302000 0.731725 -1.386569 1.088769 19.764144 3.417031 -11.683168 -0.762895 -6.872983 20.521424 -0.226595 -0.262771 5.583251 -0.015900 -0.814100 2.237400 -0.689511 0.497492 7.955244 1.723277 0.683565 1.020088 0.672890 0.276446 -4.369502 -10.616625 -3.855402 -19.161336 5.018705 -3.377343 23.661049 3.891300 -2.354900 16.284300 -6.449559 -0.911220 -1.649742 -83.432257 4.607901 19.610030 14.881965 -21.196209 -3.293416 -1.229590 -2.313782 7.781923 17.134255 22.730243 7.895100 -7.125000 0.000000 0.000000 -12.532300 55.846100 -3.372900 5.327599 1.144440 -1.276760 83.341721 -5.391161 16.702476 -16.162698 23.823966 -3.623566 0.411057 -0.143984 5.569318 -16.220139 8.058575 -2.426300 7.125000 0.000000 0.000000 7.392400 -21.507300 4.201900 
-70.619310 108.962856 4.838838 -2.226098 -18.196389 -1.386455 -2.056566 1.695039 2.460797 -14.955283 -4.918352 -6.828173 6.273427 14.645360 48.960205 1.532667 -8.155830 28.706464 0.003100 0.361600 0.993400 0.715585 -1.407651 1.203907 21.914579 1.469811 -9.044987 -0.532793 -6.099220 18.511022 -0.147750 -0.495987 4.821976 -0.001000 -0.207000 0.568700 0.872462 0.538403 8.476759 2.008364 0.920018 1.132130 0.271733 0.391980 -4.431793 -10.656236 -4.020068 -18.820454 5.186297 -3.610607 22.923182 3.924700 -2.407200 15.846300 -6.469978 -0.851841 -1.641449 -83.286290 4.872693 20.458918 14.385917 -20.482465 -3.071211 -1.224031 -2.245622 8.992839 16.424400 22.189835 7.383400 -7.125000 0.000000 0.000000 -13.023300 55.111700 -3.274500 5.344585 1.181553 -1.249118 82.743488 -5.049536 17.976546 -16.406571 24.168585 -3.739683 0.407092 -0.120258 5.209807 -16.027087 7.598129 -2.255300 7.125000 0.000000 0.000000 7.548900 -22.012600 4.204900 
-71.998488 108.942420 6.951174 -2.682243 -17.415381 -1.500858 -1.909004 1.497111 2.160057 -13.859804 -4.120892 -11.130336 7.711417 15.795761 54.041603 0.832450 -8.625482 21.296496 0.002000 -0.288900 -0.793800 0.709207 -1.402671 1.300622 22.865502 0.382285 -7.205428 -0.455985 -5.768373 17.715211 -0.037385 -0.949363 3.742617 -0.009300 0.623900 -1.714300 1.317347 0.829739 9.071637 2.087594 1.364268 1.075284 0.107822 0.624563 -4.862490 -10.979993 -4.157574 -18.370301 5.652491 -3.779659 22.703080 4.175800 -2.453200 15.686000 -6.477383 -0.773538 -1.664755 -83.405202 5.406758 20.462859 14.234085 -20.264236 -3.002950 -1.277972 -2.165064 10.643547 16.516897 21.801370 7.302500 -7.125000 0.000000 0.000000 -12.725400 54.699300 -3.069200 5.341990 1.241212 -1.219679 82.218965 -4.761921 18.600418 -16.228645 23.956234 -3.666989 0.390420 -0.217950 5.073420 -15.889985 10.320006 -3.046700 7.125000 0.000000 0.000000 7.602500 -19.113900 4.735600 
-73.241250 108.880524 9.124806 -2.614685 -16.505315 -1.829304 -1.841010 1.314972 1.908439 -13.631601 -3.491959 -14.546262 8.225558 16.230714 55.757411 0.512695 -8.339548 15.301520 0.028900 -1.097900 -3.018200 0.717345 -1.387226 1.375035 23.101777 -0.017663 -5.588578 -0.535746 -5.936740 18.300390 0.116484 -1.669109 1.631523 -0.000300 0.115000 -0.315900 1.355896 1.054521 9.236862 2.009257 1.658017 1.243760 -0.112124 0.789390 -4.622314 -10.900173 -4.304729 -18.375510 5.768351 -4.035311 22.724190 4.169500 -2.523300 15.717500 -6.500876 -0.732850 -1.672265 -83.721421 5.514705 19.219644 14.249096 -20.278510 -2.994263 -1.332819 -2.174984 11.406929 16.853142 22.241576 7.595200 -7.125000 0.000000 0.000000 -12.584500 55.237000 -3.200100 5.364528 1.267294 -1.169173 81.934593 -3.314208 18.121464 -15.600236 23.083741 -3.383284 0.400404 -0.236197 5.991415 -16.259974 10.244130 -3.103400 7.125000 0.000000 0.000000 7.330900 -19.157100 4.556500 
-74.322354 108.718866 11.187264 -2.540360 -15.396583 -1.903197 -1.834910 1.123812 1.663131 -13.582573 -3.619451 -17.568833 7.925746 16.159657 54.760123 0.409262 -7.582111 10.941140 0.000300 0.104600 0.287400 0.746544 -1.346632 1.435197 23.345709 -0.356155 -4.778924 -0.673581 -6.279996 19.374201 0.279170 -2.532331 -0.649098 -0.001600 0.255100 -0.701000 1.498153 1.186531 9.338686 1.913320 1.841733 1.379665 -0.386236 0.898427 -4.381323 -10.886121 -4.387055 -18.548083 5.866903 -4.149036 22.762577 4.196300 -2.546000 15.789800 -6.495995 -0.709675 -1.685560 -84.031017 5.464777 18.580472 14.530835 -20.662768 -3.138006 -1.673798 -1.380776 9.659836 23.441277 13.100401 6.723200 -7.125000 0.000000 0.000000 -2.528000 46.127600 -0.070400 5.362653 1.299958 -1.124510 81.686937 -1.967146 17.509746 -15.249903 22.597738 -3.229523 0.402212 -0.246038 6.613762 -16.373567 10.158893 -3.102900 7.125000 0.000000 0.000000 7.247600 -19.232400 4.491600 
-75.242406 108.321642 13.199244 -2.882391 -14.488787 -1.923285 -1.880668 0.973861 1.496761 -13.209012 -3.706744 -19.712727 6.900552 15.578392 51.310375 0.420429 -6.783149 6.415020 0.069400 -1.699700 -4.676500 0.777253 -1.299408 1.471767 24.001445 -0.304570 -3.956499 -0.857734 -6.729058 20.761647 0.454391 -3.529752 -2.805006 -0.004500 0.434200 -1.193000 2.121229 1.400581 9.832867 1.854985 2.211539 1.426307 -0.898191 1.090070 -4.530667 -10.844178 -4.546959 -18.468194 5.879260 -4.399213 22.714839 4.157100 -2.635900 15.784400 -6.482008 -0.689708 -1.703854 -84.176835 5.621820 18.806994 14.821034 -21.100580 -3.234844 -1.509797 -2.434483 8.994799 19.745616 25.152090 10.070000 -7.125000 0.000000 0.000000 -10.891700 59.035000 -3.763500 5.335125 1.336619 -1.101512 81.511673 -1.373557 17.732646 -15.534693 22.991063 -3.348796 0.419174 -0.225401 5.956208 -16.753944 9.771220 -3.056600 7.125000 0.000000 0.000000 6.971700 -19.627100 4.256200 
-76.015830 108.108906 15.312180 -2.985354 -14.030927 -1.624842 -2.023155 0.835913 1.365290 -13.206356 -3.491823 -21.359784 5.250622 14.406137 45.545138 0.209855 -2.804568 3.518472 0.071900 -1.729900 -4.759800 0.840940 -1.260535 1.520153 24.209893 -0.800541 -3.293388 -0.938740 -6.895396 21.322586 0.455025 -3.681383 -4.279262 -0.031900 1.153400 -3.171100 2.658301 1.757147 9.826107 1.757218 2.743708 1.376930 -1.432930 1.363016 -4.588561 -11.023142 -4.676432 -18.157537 5.922392 -4.548631 22.588472 4.193500 -2.714500 15.677600 -6.463325 -0.655733 -1.718786 -84.324669 5.897095 19.669787 15.069582 -21.418263 -3.375981 -1.280193 -2.197769 7.819003 18.151932 21.214305 7.894800 -7.125000 0.000000 0.000000 -10.673800 54.432600 -2.495400 5.287507 1.361161 -1.087785 81.128921 -1.072917 18.707612 -16.025779 23.675523 -3.566187 0.431489 -0.183266 4.894347 -16.900492 9.026172 -2.845600 7.125000 0.000000 0.000000 6.870100 -20.426600 4.069400 
-76.708722 108.009150 17.493024 -3.306258 -13.341398 -1.199222 -2.269772 0.737421 1.286346 -12.931508 -3.857005 -21.936643 3.260150 12.579915 38.039580 -0.326373 2.104168 1.976230 0.087300 -1.905300 -5.244100 0.932248 -1.249141 1.568801 24.627501 -1.477217 -1.938022 -0.794400 -6.529208 20.277280 0.604695 -4.454685 -4.918583 -0.027700 1.074700 -2.954200 3.260265 1.932750 9.634620 1.719310 3.032329 1.414600 -1.878556 1.524738 -4.392578 -10.470411 -4.544115 -17.956479 5.169792 -4.441583 21.996289 3.735700 -2.681900 15.246700 -6.424934 -0.692028 -1.720595 -84.678861 5.929927 19.801025 15.371773 -21.834028 -3.514707 -1.219719 -2.376237 6.574340 17.850946 22.858896 8.295200 -7.125000 0.000000 0.000000 -11.835600 56.169500 -3.274800 5.264424 1.319422 -1.089926 80.630933 -0.545375 20.207836 -16.649198 24.540670 -3.853309 0.437350 -0.159301 4.091540 -17.021841 8.826438 -2.799500 7.125000 0.000000 0.000000 6.783900 -20.646100 3.983900 
